<mxfile host="app.diagrams.net" agent="Mozilla/5.0 (Windows NT 10.0; Win64; x64) AppleWebKit/537.36 (KHTML, like Gecko) Chrome/134.0.0.0 Safari/537.36" version="26.1.1">
  <diagram id="prtHgNgQTEPvFCAcTncT" name="Page-1">
    <mxGraphModel dx="778" dy="1631" grid="1" gridSize="10" guides="1" tooltips="1" connect="1" arrows="1" fold="1" page="1" pageScale="1" pageWidth="827" pageHeight="1169" math="0" shadow="0">
      <root>
        <mxCell id="0" />
        <mxCell id="1" parent="0" />
        <mxCell id="dNxyNK7c78bLwvsdeMH5-11" value="NavegaciÃ³n entre vistas" style="swimlane;html=1;startSize=20;horizontal=1;containerType=tree;glass=0;" parent="1" vertex="1">
          <mxGeometry x="10" y="-20" width="710" height="640" as="geometry" />
        </mxCell>
        <mxCell id="lnwIUH7pZlgHuS-bECjO-3" value="Pagina Principal" style="rounded=0;whiteSpace=wrap;html=1;" parent="dNxyNK7c78bLwvsdeMH5-11" vertex="1">
          <mxGeometry x="295" y="30" width="120" height="60" as="geometry" />
        </mxCell>
        <mxCell id="lnwIUH7pZlgHuS-bECjO-4" value="Registro" style="rounded=0;whiteSpace=wrap;html=1;" parent="dNxyNK7c78bLwvsdeMH5-11" vertex="1">
          <mxGeometry x="150" y="140" width="120" height="60" as="geometry" />
        </mxCell>
        <mxCell id="lnwIUH7pZlgHuS-bECjO-5" value="lniciar sesion" style="rounded=0;whiteSpace=wrap;html=1;" parent="dNxyNK7c78bLwvsdeMH5-11" vertex="1">
          <mxGeometry x="430" y="140" width="120" height="60" as="geometry" />
        </mxCell>
        <mxCell id="lnwIUH7pZlgHuS-bECjO-8" value="" style="endArrow=none;html=1;rounded=0;" parent="dNxyNK7c78bLwvsdeMH5-11" edge="1">
          <mxGeometry width="50" height="50" relative="1" as="geometry">
            <mxPoint x="210" y="120" as="sourcePoint" />
            <mxPoint x="490" y="120" as="targetPoint" />
          </mxGeometry>
        </mxCell>
        <mxCell id="lnwIUH7pZlgHuS-bECjO-9" value="" style="endArrow=none;html=1;rounded=0;exitX=0.5;exitY=0;exitDx=0;exitDy=0;" parent="dNxyNK7c78bLwvsdeMH5-11" source="lnwIUH7pZlgHuS-bECjO-4" edge="1">
          <mxGeometry width="50" height="50" relative="1" as="geometry">
            <mxPoint x="185" y="130" as="sourcePoint" />
            <mxPoint x="210" y="120" as="targetPoint" />
          </mxGeometry>
        </mxCell>
        <mxCell id="lnwIUH7pZlgHuS-bECjO-10" value="" style="endArrow=none;html=1;rounded=0;exitX=0.5;exitY=0;exitDx=0;exitDy=0;" parent="dNxyNK7c78bLwvsdeMH5-11" source="lnwIUH7pZlgHuS-bECjO-5" edge="1">
          <mxGeometry width="50" height="50" relative="1" as="geometry">
            <mxPoint x="365" y="180" as="sourcePoint" />
            <mxPoint x="490" y="120" as="targetPoint" />
          </mxGeometry>
        </mxCell>
        <mxCell id="lnwIUH7pZlgHuS-bECjO-11" value="Mis Productos" style="rounded=0;whiteSpace=wrap;html=1;" parent="dNxyNK7c78bLwvsdeMH5-11" vertex="1">
          <mxGeometry x="30" y="420" width="120" height="60" as="geometry" />
        </mxCell>
        <mxCell id="lnwIUH7pZlgHuS-bECjO-15" value="Perfil&lt;br&gt;Datos de usuario" style="rounded=0;whiteSpace=wrap;html=1;" parent="dNxyNK7c78bLwvsdeMH5-11" vertex="1">
          <mxGeometry x="150" y="280" width="120" height="60" as="geometry" />
        </mxCell>
        <mxCell id="lnwIUH7pZlgHuS-bECjO-18" value="Realizar compra" style="rounded=0;whiteSpace=wrap;html=1;" parent="dNxyNK7c78bLwvsdeMH5-11" vertex="1">
          <mxGeometry x="430" y="350" width="120" height="60" as="geometry" />
        </mxCell>
        <mxCell id="lnwIUH7pZlgHuS-bECjO-19" value="Carrito de compras" style="rounded=0;whiteSpace=wrap;html=1;" parent="dNxyNK7c78bLwvsdeMH5-11" vertex="1">
          <mxGeometry x="430" y="280" width="120" height="60" as="geometry" />
        </mxCell>
        <mxCell id="lnwIUH7pZlgHuS-bECjO-20" value="Vista de tiendas" style="rounded=0;whiteSpace=wrap;html=1;" parent="dNxyNK7c78bLwvsdeMH5-11" vertex="1">
          <mxGeometry x="570" y="30" width="120" height="60" as="geometry" />
        </mxCell>
        <mxCell id="lnwIUH7pZlgHuS-bECjO-21" value="" style="endArrow=none;html=1;rounded=0;" parent="dNxyNK7c78bLwvsdeMH5-11" edge="1">
          <mxGeometry width="50" height="50" relative="1" as="geometry">
            <mxPoint x="209.5" y="370" as="sourcePoint" />
            <mxPoint x="209.5" y="340" as="targetPoint" />
            <Array as="points">
              <mxPoint x="209.5" y="340" />
            </Array>
          </mxGeometry>
        </mxCell>
        <mxCell id="lnwIUH7pZlgHuS-bECjO-22" value="Detalle de producto" style="rounded=0;whiteSpace=wrap;html=1;" parent="dNxyNK7c78bLwvsdeMH5-11" vertex="1">
          <mxGeometry x="570" y="120" width="120" height="60" as="geometry" />
        </mxCell>
        <mxCell id="lnwIUH7pZlgHuS-bECjO-23" value="" style="endArrow=none;html=1;rounded=0;entryX=0;entryY=0.5;entryDx=0;entryDy=0;exitX=1;exitY=0.5;exitDx=0;exitDy=0;" parent="dNxyNK7c78bLwvsdeMH5-11" source="lnwIUH7pZlgHuS-bECjO-3" target="lnwIUH7pZlgHuS-bECjO-20" edge="1">
          <mxGeometry width="50" height="50" relative="1" as="geometry">
            <mxPoint x="450" y="80" as="sourcePoint" />
            <mxPoint x="500" y="30" as="targetPoint" />
          </mxGeometry>
        </mxCell>
        <mxCell id="lnwIUH7pZlgHuS-bECjO-24" value="" style="endArrow=none;html=1;rounded=0;" parent="dNxyNK7c78bLwvsdeMH5-11" edge="1">
          <mxGeometry width="50" height="50" relative="1" as="geometry">
            <mxPoint x="630" y="120" as="sourcePoint" />
            <mxPoint x="630" y="90" as="targetPoint" />
          </mxGeometry>
        </mxCell>
        <mxCell id="lnwIUH7pZlgHuS-bECjO-26" value="Nueva Publicacion" style="rounded=0;whiteSpace=wrap;html=1;" parent="dNxyNK7c78bLwvsdeMH5-11" vertex="1">
          <mxGeometry x="160" y="420" width="120" height="60" as="geometry" />
        </mxCell>
        <mxCell id="lnwIUH7pZlgHuS-bECjO-27" value="Pedidos" style="rounded=0;whiteSpace=wrap;html=1;" parent="dNxyNK7c78bLwvsdeMH5-11" vertex="1">
          <mxGeometry x="290" y="420" width="120" height="60" as="geometry" />
        </mxCell>
        <mxCell id="lnwIUH7pZlgHuS-bECjO-28" value="" style="endArrow=none;html=1;rounded=0;" parent="dNxyNK7c78bLwvsdeMH5-11" edge="1">
          <mxGeometry width="50" height="50" relative="1" as="geometry">
            <mxPoint x="90" y="370" as="sourcePoint" />
            <mxPoint x="350" y="370" as="targetPoint" />
          </mxGeometry>
        </mxCell>
        <mxCell id="lnwIUH7pZlgHuS-bECjO-29" value="" style="endArrow=none;html=1;rounded=0;" parent="dNxyNK7c78bLwvsdeMH5-11" edge="1">
          <mxGeometry width="50" height="50" relative="1" as="geometry">
            <mxPoint x="89.5" y="410" as="sourcePoint" />
            <mxPoint x="89.5" y="370" as="targetPoint" />
            <Array as="points">
              <mxPoint x="90" y="420" />
              <mxPoint x="89.5" y="410" />
            </Array>
          </mxGeometry>
        </mxCell>
        <mxCell id="lnwIUH7pZlgHuS-bECjO-30" value="" style="endArrow=none;html=1;rounded=0;" parent="dNxyNK7c78bLwvsdeMH5-11" edge="1">
          <mxGeometry width="50" height="50" relative="1" as="geometry">
            <mxPoint x="209.5" y="420" as="sourcePoint" />
            <mxPoint x="209.5" y="370" as="targetPoint" />
          </mxGeometry>
        </mxCell>
        <mxCell id="lnwIUH7pZlgHuS-bECjO-31" value="" style="endArrow=none;html=1;rounded=0;" parent="dNxyNK7c78bLwvsdeMH5-11" edge="1">
          <mxGeometry width="50" height="50" relative="1" as="geometry">
            <mxPoint x="349.5" y="420" as="sourcePoint" />
            <mxPoint x="349.5" y="370" as="targetPoint" />
          </mxGeometry>
        </mxCell>
        <mxCell id="lnwIUH7pZlgHuS-bECjO-32" value="" style="endArrow=none;html=1;rounded=0;" parent="dNxyNK7c78bLwvsdeMH5-11" edge="1">
          <mxGeometry width="50" height="50" relative="1" as="geometry">
            <mxPoint x="489.71000000000004" y="350" as="sourcePoint" />
            <mxPoint x="490" y="340" as="targetPoint" />
            <Array as="points">
              <mxPoint x="489.71000000000004" y="340" />
            </Array>
          </mxGeometry>
        </mxCell>
        <mxCell id="lnwIUH7pZlgHuS-bECjO-34" value="Publico" style="text;html=1;align=center;verticalAlign=middle;whiteSpace=wrap;rounded=0;" parent="dNxyNK7c78bLwvsdeMH5-11" vertex="1">
          <mxGeometry x="320" y="210" width="60" height="30" as="geometry" />
        </mxCell>
        <mxCell id="lnwIUH7pZlgHuS-bECjO-35" value="Privado" style="text;html=1;align=center;verticalAlign=middle;whiteSpace=wrap;rounded=0;" parent="dNxyNK7c78bLwvsdeMH5-11" vertex="1">
          <mxGeometry x="320" y="280" width="60" height="30" as="geometry" />
        </mxCell>
        <mxCell id="lnwIUH7pZlgHuS-bECjO-7" value="" style="endArrow=none;html=1;rounded=0;entryX=0.5;entryY=1;entryDx=0;entryDy=0;" parent="1" target="lnwIUH7pZlgHuS-bECjO-3" edge="1">
          <mxGeometry width="50" height="50" relative="1" as="geometry">
            <mxPoint x="365" y="100" as="sourcePoint" />
            <mxPoint x="430" y="220" as="targetPoint" />
          </mxGeometry>
        </mxCell>
        <mxCell id="lnwIUH7pZlgHuS-bECjO-17" value="" style="endArrow=none;dashed=1;html=1;dashPattern=1 3;strokeWidth=2;rounded=0;" parent="1" edge="1">
          <mxGeometry width="50" height="50" relative="1" as="geometry">
            <mxPoint x="60" y="240" as="sourcePoint" />
            <mxPoint x="700" y="240" as="targetPoint" />
          </mxGeometry>
        </mxCell>
      </root>
    </mxGraphModel>
  </diagram>
</mxfile>
